<?xml version="1.0" encoding="UTF-8" standalone="no"?>
<!-- Created with Inkscape (http://www.inkscape.org/) -->

<svg
   version="1.1"
   id="svg2"
   width="1600"
   height="1600"
   viewBox="0 0 1600 1600"
   sodipodi:docname="Copy of Moonsong logo mark.ai"
   xmlns:inkscape="http://www.inkscape.org/namespaces/inkscape"
   xmlns:sodipodi="http://sodipodi.sourceforge.net/DTD/sodipodi-0.dtd"
   xmlns="http://www.w3.org/2000/svg"
   xmlns:svg="http://www.w3.org/2000/svg">
  <defs
     id="defs6">
    <clipPath
       clipPathUnits="userSpaceOnUse"
       id="clipPath16">
      <path
         d="M 0,1200 H 1200 V 0 H 0 Z"
         id="path14" />
    </clipPath>
  </defs>
  <sodipodi:namedview
     id="namedview4"
     pagecolor="#ffffff"
     bordercolor="#000000"
     borderopacity="0.25"
     inkscape:showpageshadow="2"
     inkscape:pageopacity="0.0"
     inkscape:pagecheckerboard="0"
     inkscape:deskcolor="#d1d1d1" />
  <g
     id="g8"
     inkscape:groupmode="layer"
     inkscape:label="Copy of Moonsong logo mark"
     transform="matrix(1.3333333,0,0,-1.3333333,0,1600)">
    <g
       id="g10">
      <g
         id="g12"
         clip-path="url(#clipPath16)">
        <g
           id="g18"
           transform="translate(1058.1708,600)">
          <path
             d="m 0,0 c 0,-253.041 -205.13,-458.171 -458.171,-458.171 -253.04,0 -458.17,205.13 -458.17,458.171 0,253.041 205.13,458.171 458.17,458.171 C -205.13,458.171 0,253.041 0,0"
             style="fill:#2537b8;fill-opacity:1;fill-rule:nonzero;stroke:none"
             id="path20" />
        </g>
        <g
           id="g22"
           transform="translate(841.1106,631.933)">
          <path
             d="M 0,0 C 0,0 42.141,-3.235 62.733,23.148 L 62.721,23.15 C 50.817,13.77 35.806,8.157 19.475,8.157 c -38.629,0 -69.944,31.315 -69.944,69.944 0,38.629 31.315,69.944 69.944,69.944 22.617,0 42.714,-10.745 55.499,-27.397 l 0.008,0.006 c -20.508,30.57 -60.529,34.204 -60.529,34.204 l -0.006,-0.012 c -4.684,0.877 -9.509,1.356 -14.447,1.356 -43.134,0 -78.101,-34.967 -78.101,-78.101 C -78.101,34.967 -43.134,0 0,0"
             style="fill:#03045e;fill-opacity:1;fill-rule:nonzero;stroke:none"
             id="path24" />
        </g>
        <g
           id="g26"
           transform="translate(860.5856,779.9776)">
          <path
             d="m 0,0 c -38.629,0 -69.944,-31.315 -69.944,-69.944 0,-38.629 31.315,-69.943 69.944,-69.943 16.331,0 31.342,5.612 43.246,14.993 16.251,12.807 26.698,32.653 26.698,54.95 0,16.012 -5.393,30.758 -14.445,42.548 C 42.714,-10.744 22.617,0 0,0"
             style="fill:#ff7256;fill-opacity:1;fill-rule:nonzero;stroke:none"
             id="path28" />
        </g>
        <g
           id="g30"
           transform="translate(348.4073,404.2008)">
          <path
             d="m 0,0 c -16.699,2.372 -28.659,17.469 -28.659,34.336 v 273.168 c 0,24.405 24.483,39.534 45.43,31.578 -30.985,12.301 -54.21,3.496 -60.883,0.337 -12.816,-4.339 -22.962,-16.205 -22.962,-31.915 V 34.336 c 0,-15.427 10.02,-29.341 24.505,-33.425 10.161,-4.023 28.29,-8.068 52.455,-0.888 C 6.713,-0.447 3.398,-0.483 0,0"
             style="fill:#03045e;fill-opacity:1;fill-rule:nonzero;stroke:none"
             id="path32" />
        </g>
        <g
           id="g34"
           transform="translate(487.2085,566.4977)">
          <path
             d="m 0,0 -34.205,26.491 -12.004,9.174 c -12.614,9.64 -28.399,8.655 -39.656,0.88 0.415,-0.29 0.833,-0.568 1.241,-0.88 L -72.62,26.491 -38.416,0 c 3.838,-2.972 8.159,-4.997 12.656,-6.089 7.557,-2.583 25.833,-6.999 50.685,-0.652 C 16.268,-7.86 7.27,-5.63 0,0"
             style="fill:#03045e;fill-opacity:1;fill-rule:nonzero;stroke:none"
             id="path36" />
        </g>
        <g
           id="g38"
           transform="translate(628.6422,463.4719)">
          <path
             d="m 0,0 v 60.277 51.103 c 0,0.324 0.04,0.638 0.049,0.96 -0.191,27.164 -30.803,42.691 -52.769,27.278 8.402,-5.826 14.27,-15.443 14.353,-27.278 -0.008,-0.322 -0.048,-0.636 -0.048,-0.96 V 60.277 0 C -38.95,-34.331 -8.76,-60.873 31.155,-59.622 H 59.427 64.77 C 27.265,-58.691 -0.513,-32.939 0,0"
             style="fill:#03045e;fill-opacity:1;fill-rule:nonzero;stroke:none"
             id="path40" />
        </g>
        <g
           id="g42"
           transform="translate(523.2526,563.1994)">
          <path
             d="M 0,0 -0.016,0.01 C -0.056,-0.01 -0.097,-0.027 -0.136,-0.048 -0.091,-0.031 -0.046,-0.017 0,0"
             style="fill:#03045e;fill-opacity:1;fill-rule:nonzero;stroke:none"
             id="path44" />
        </g>
        <g
           id="g46"
           transform="translate(366.852,742.6147)">
          <path
             d="M 0,0 C -0.521,0.218 -1.035,0.414 -1.552,0.62 -1.032,0.42 -0.516,0.191 0,-0.037 Z"
             style="fill:#03045e;fill-opacity:1;fill-rule:nonzero;stroke:none"
             id="path48" />
        </g>
        <g
           id="g50"
           transform="translate(528.326,651.2103)">
          <path
             d="m 0,0 100.382,77.184 13.02,9.999 c 11.021,8.464 24.49,8.797 35.238,3.557 v 0.099 c -34.982,14.918 -58.279,4.743 -64.384,1.422 -3.198,-1.15 -6.322,-2.815 -9.269,-5.078 L 61.967,77.184 -38.415,0 C -38.84,-0.327 -39.283,-0.615 -39.719,-0.919 -27.74,-9.261 -11.669,-8.972 0,0"
             style="fill:#03045e;fill-opacity:1;fill-rule:nonzero;stroke:none"
             id="path52" />
        </g>
        <g
           id="g54"
           transform="translate(905.3095,471.1517)">
          <path
             d="m 0,0 -163.76,0.447 c -24.01,0 -40.38,4.757 -44.956,24.933 -0.491,2.161 -0.691,4.386 -0.718,6.604 v 208.569 c 0,14.011 -8.072,24.961 -18.909,30.245 -10.749,5.24 -24.217,4.907 -35.238,-3.556 l -13.02,-9.999 -100.383,-77.184 c -11.668,-8.973 -27.74,-9.261 -39.719,-0.919 -0.435,0.303 -0.879,0.592 -1.303,0.918 l -100.389,77.185 -13.02,9.999 c -2.258,1.734 -4.623,3.11 -7.043,4.184 -0.515,0.228 -1.031,0.457 -1.552,0.657 -0.04,0.016 -0.08,0.033 -0.121,0.049 -20.947,7.955 -45.43,-7.174 -45.43,-31.579 V -32.615 c 0,-16.867 11.96,-31.964 28.659,-34.336 3.397,-0.483 6.712,-0.447 9.886,0.023 16.193,2.399 28.621,16.349 28.621,33.21 v 137.992 c 0,11.996 5.924,21.742 14.429,27.617 11.257,7.775 27.042,8.76 39.656,-0.88 l 12.004,-9.174 34.205,-26.491 c 7.27,-5.63 16.268,-7.86 24.925,-6.741 3.786,0.489 7.502,1.615 10.983,3.395 0.039,0.02 0.08,0.037 0.12,0.058 1.798,0.929 3.538,2.015 5.183,3.289 l 34.201,26.49 12.111,9.257 c 0.392,0.299 0.793,0.565 1.19,0.844 21.966,15.413 52.578,-0.114 52.769,-27.278 -0.009,-0.322 -0.048,-0.636 -0.048,-0.959 V 52.597 -7.68 c -0.514,-32.939 27.264,-58.691 64.77,-59.621 1.585,-0.04 3.181,-0.051 4.799,0 h 11.375 16.898 21.517 118.801 38.415 c 18.585,0 33.651,15.065 33.651,33.65 v 0 C 33.559,-15.102 18.549,-0.051 0,0"
             style="fill:#43cd81;fill-opacity:1;fill-rule:nonzero;stroke:none"
             id="path56" />
        </g>
      </g>
    </g>
  </g>
</svg>
