<?xml version="1.0" encoding="UTF-8" standalone="no"?>
<!-- Created with Inkscape (http://www.inkscape.org/) -->

<svg
   version="1.1"
   id="svg2"
   width="1600"
   height="1600"
   viewBox="0 0 1600 1600"
   sodipodi:docname="MSL-mono.ai"
   xmlns:inkscape="http://www.inkscape.org/namespaces/inkscape"
   xmlns:sodipodi="http://sodipodi.sourceforge.net/DTD/sodipodi-0.dtd"
   xmlns="http://www.w3.org/2000/svg"
   xmlns:svg="http://www.w3.org/2000/svg">
  <defs
     id="defs6">
    <clipPath
       clipPathUnits="userSpaceOnUse"
       id="clipPath16">
      <path
         d="M 0,1200 H 1200 V 0 H 0 Z"
         id="path14" />
    </clipPath>
  </defs>
  <sodipodi:namedview
     id="namedview4"
     pagecolor="#ffffff"
     bordercolor="#000000"
     borderopacity="0.25"
     inkscape:showpageshadow="2"
     inkscape:pageopacity="0.0"
     inkscape:pagecheckerboard="0"
     inkscape:deskcolor="#d1d1d1" />
  <g
     id="g8"
     inkscape:groupmode="layer"
     inkscape:label="MSL-mono"
     transform="matrix(1.3333333,0,0,-1.3333333,0,1600)">
    <g
       id="g10">
      <g
         id="g12"
         clip-path="url(#clipPath16)">
        <g
           id="g18"
           transform="translate(1060.3658,600)">
          <path
             d="m 0,0 c 0,-254.253 -206.113,-460.366 -460.366,-460.366 -254.253,0 -460.366,206.113 -460.366,460.366 0,254.253 206.113,460.366 460.366,460.366 C -206.113,460.366 0,254.253 0,0"
             style="fill:#ffffff;fill-opacity:1;fill-rule:nonzero;stroke:none"
             id="path20" />
        </g>
        <g
           id="g22"
           transform="translate(902.6641,710.561)">
          <path
             d="m 0,0 c 0,-38.814 -31.465,-70.279 -70.279,-70.279 -38.814,0 -70.279,31.465 -70.279,70.279 0,38.814 31.465,70.279 70.279,70.279 C -31.465,70.279 0,38.814 0,0"
             style="fill:#000000;fill-opacity:1;fill-rule:nonzero;stroke:none"
             id="path24" />
        </g>
        <g
           id="g26"
           transform="translate(877.3235,470.5343)">
          <path
             d="m 0,0 -164.544,0.449 c -24.126,0 -40.574,4.78 -45.172,25.052 -0.494,2.172 -0.694,4.408 -0.721,6.636 v 209.569 c 0,28.04 -32.168,43.895 -54.407,26.816 l -13.082,-10.047 -100.864,-77.554 c -12.151,-9.343 -29.067,-9.343 -41.219,0 l -100.87,77.554 -13.082,10.047 c -22.239,17.079 -54.406,1.224 -54.406,-26.816 V -32.771 c 0,-16.948 12.018,-32.117 28.797,-34.501 20.835,-2.959 38.691,13.131 38.691,33.392 v 138.654 c 0,28.004 32.094,43.87 54.345,26.865 l 12.061,-9.218 34.369,-26.618 c 12.189,-9.44 29.22,-9.44 41.409,0.001 l 34.364,26.617 12.169,9.301 c 22.137,16.92 54.023,1.228 54.218,-26.561 -0.009,-0.323 -0.049,-0.638 -0.049,-0.963 V 52.849 -7.717 c -0.538,-34.495 29.798,-61.164 69.903,-59.907 h 28.408 21.621 157.969 c 18.674,0 33.812,15.138 33.812,33.812 v 0 C 33.72,-15.174 18.638,-0.051 0,0"
             style="fill:#000000;fill-opacity:1;fill-rule:nonzero;stroke:none"
             id="path28" />
        </g>
      </g>
    </g>
  </g>
</svg>
