<?xml version="1.0" encoding="UTF-8" standalone="no"?>
<!-- Created with Inkscape (http://www.inkscape.org/) -->

<svg
   version="1.1"
   id="svg2"
   width="1600"
   height="1145.8719"
   viewBox="0 0 1600 1145.8719"
   sodipodi:docname="Copy of Moonsong lettermark.ai"
   xmlns:inkscape="http://www.inkscape.org/namespaces/inkscape"
   xmlns:sodipodi="http://sodipodi.sourceforge.net/DTD/sodipodi-0.dtd"
   xmlns="http://www.w3.org/2000/svg"
   xmlns:svg="http://www.w3.org/2000/svg">
  <defs
     id="defs6">
    <clipPath
       clipPathUnits="userSpaceOnUse"
       id="clipPath16">
      <path
         d="M 0,859.404 H 1200 V 0 H 0 Z"
         id="path14" />
    </clipPath>
  </defs>
  <sodipodi:namedview
     id="namedview4"
     pagecolor="#ffffff"
     bordercolor="#000000"
     borderopacity="0.25"
     inkscape:showpageshadow="2"
     inkscape:pageopacity="0.0"
     inkscape:pagecheckerboard="0"
     inkscape:deskcolor="#d1d1d1" />
  <g
     id="g8"
     inkscape:groupmode="layer"
     inkscape:label="Copy of Moonsong lettermark"
     transform="matrix(1.3333333,0,0,-1.3333333,0,1145.872)">
    <g
       id="g10">
      <g
         id="g12"
         clip-path="url(#clipPath16)">
        <g
           id="g18"
           transform="translate(924.881,482.7498)">
          <path
             d="M 0,0 C 0,0 59.192,-4.543 88.157,32.494 71.428,19.325 50.322,11.468 27.38,11.468 c -54.309,0 -98.336,44.027 -98.336,98.336 0,54.31 44.027,98.336 98.336,98.336 31.795,0 60.06,-15.094 78.035,-38.502 C 76.58,212.61 20.32,217.719 20.32,217.719 l -0.009,-0.016 c -6.586,1.232 -13.368,1.905 -20.311,1.905 -60.643,0 -109.805,-49.161 -109.805,-109.804 C -109.805,49.161 -60.643,0 0,0"
             style="fill:#03045e;fill-opacity:1;fill-rule:nonzero;stroke:none"
             id="path20" />
        </g>
        <g
           id="g22"
           transform="translate(952.2615,690.89)">
          <path
             d="m 0,0 c -54.31,0 -98.336,-44.026 -98.336,-98.336 0,-54.309 44.026,-98.336 98.336,-98.336 22.942,0 44.048,7.857 60.776,21.026 22.872,18.005 37.56,45.942 37.56,77.31 0,22.515 -7.572,43.258 -20.301,59.834 C 60.06,-15.094 31.795,0 0,0"
             style="fill:#ff7256;fill-opacity:1;fill-rule:nonzero;stroke:none"
             id="path24" />
        </g>
        <g
           id="g26"
           transform="translate(232.1746,162.5742)">
          <path
             d="m 0,0 c -23.478,3.335 -40.293,24.561 -40.293,48.274 v 384.055 c 0,34.301 34.401,55.569 63.846,44.408 -43.553,17.28 -76.196,4.901 -85.574,0.462 -18.018,-6.102 -32.28,-22.784 -32.28,-44.869 V 48.274 c 0,-21.688 14.086,-41.251 34.451,-46.993 14.284,-5.656 39.771,-11.343 73.746,-1.25 C 9.435,-0.629 4.776,-0.678 0,0"
             style="fill:#03045e;fill-opacity:1;fill-rule:nonzero;stroke:none"
             id="path28" />
        </g>
        <g
           id="g30"
           transform="translate(427.3195,390.7522)">
          <path
             d="m 0,0 -48.09,37.245 -16.876,12.898 c -17.727,13.547 -39.915,12.179 -55.74,1.26 0.581,-0.406 1.159,-0.823 1.731,-1.26 L -102.099,37.245 -54.009,0 c 5.367,-4.157 11.406,-7 17.693,-8.54 10.58,-3.62 36.219,-9.817 71.021,-1.018 C 22.639,-11.028 10.125,-7.842 0,0"
             style="fill:#03045e;fill-opacity:1;fill-rule:nonzero;stroke:none"
             id="path32" />
        </g>
        <g
           id="g34"
           transform="translate(485.1278,509.8521)">
          <path
             d="m 0,0 141.131,108.515 18.305,14.058 c 15.494,11.9 34.431,12.371 49.542,5.004 v 0.136 c -49.185,20.975 -81.938,6.668 -90.521,1.999 -4.496,-1.616 -8.888,-3.957 -13.031,-7.139 L 87.122,108.515 -54.009,0 c -0.602,-0.463 -1.215,-0.905 -1.833,-1.336 C -39.002,-13.053 -16.4,-12.61 0,0"
             style="fill:#03045e;fill-opacity:1;fill-rule:nonzero;stroke:none"
             id="path36" />
        </g>
        <g
           id="g38"
           transform="translate(626.1653,245.9051)">
          <path
             d="m 0,0 v 84.745 71.848 c 0,0.455 0.056,0.897 0.069,1.349 -0.269,38.192 -43.318,60.051 -74.201,38.378 11.824,-8.189 20.074,-21.729 20.192,-38.378 -0.013,-0.452 -0.069,-0.894 -0.069,-1.349 V 84.745 0 c -0.752,-48.267 41.694,-85.583 97.81,-83.824 h 39.75 6.789 C 37.971,-82.208 -0.719,-46.101 0,0"
             style="fill:#03045e;fill-opacity:1;fill-rule:nonzero;stroke:none"
             id="path40" />
        </g>
        <g
           id="g42"
           transform="translate(763.7249,162.0813)">
          <path
             d="m 0,0 h -39.75 c -0.003,0 -0.005,0 -0.008,0 h 16.001 221.035 c 0.002,0 0.005,0 0.007,0 H 30.252 Z"
             style="fill:#03045e;fill-opacity:1;fill-rule:nonzero;stroke:none"
             id="path44" />
        </g>
        <g
           id="g46"
           transform="translate(477.9948,386.1153)">
          <path
             d="M 0,0 -0.009,0.006 C -0.027,-0.004 -0.046,-0.013 -0.064,-0.022 -0.042,-0.015 -0.021,-0.008 0,0"
             style="fill:#03045e;fill-opacity:1;fill-rule:nonzero;stroke:none"
             id="path48" />
        </g>
        <g
           id="g50"
           transform="translate(258.1063,638.3605)">
          <path
             d="M 0,0 C -0.395,0.165 -0.782,0.309 -1.175,0.469 -0.782,0.308 -0.391,0.139 0,-0.034 Z"
             style="fill:#03045e;fill-opacity:1;fill-rule:nonzero;stroke:none"
             id="path52" />
        </g>
        <g
           id="g54"
           transform="translate(1015.1403,256.7024)">
          <path
             d="m 0,0 -230.235,0.629 c -33.756,0 -56.771,6.688 -63.206,35.053 -0.69,3.039 -0.97,6.167 -1.009,9.285 v 293.234 c 0,19.699 -11.347,35.097 -26.584,42.526 -15.111,7.367 -34.049,6.895 -49.543,-5.004 l -18.305,-14.058 -141.13,-108.515 c -16.401,-12.611 -39.003,-13.053 -55.843,-1.336 -0.618,0.43 -1.23,0.872 -1.832,1.335 l -141.14,108.516 -18.305,14.058 c -3.176,2.439 -6.499,4.391 -9.902,5.901 -0.391,0.173 -0.782,0.342 -1.175,0.503 -0.4,0.165 -0.801,0.329 -1.204,0.481 -29.444,11.162 -63.845,-10.106 -63.845,-44.407 V -45.854 c 0,-23.714 16.815,-44.939 40.292,-48.274 4.776,-0.679 9.436,-0.629 13.896,0.031 22.769,3.373 40.243,22.986 40.243,46.692 v 194.008 c 0,16.873 8.331,30.592 20.3,38.85 15.825,10.919 38.013,12.287 55.74,-1.26 l 16.876,-12.898 48.09,-37.245 c 10.126,-7.842 22.639,-11.028 34.705,-9.558 5.485,0.668 10.873,2.307 15.907,4.899 0.018,0.009 0.036,0.018 0.055,0.027 2.525,1.305 4.963,2.844 7.273,4.633 l 48.084,37.244 17.027,13.014 c 0.55,0.42 1.105,0.822 1.663,1.214 30.883,21.672 73.932,-0.186 74.201,-38.379 -0.013,-0.452 -0.069,-0.893 -0.069,-1.348 V 73.948 -10.797 c -0.719,-46.101 37.972,-82.208 90.34,-83.824 2.458,-0.076 4.945,-0.079 7.461,0 0.003,0 0.006,0 0.009,0 h 39.75 30.251 167.034 54.001 c 26.129,0 47.311,21.181 47.311,47.31 v 0 C 47.182,-21.232 26.078,-0.071 0,0"
             style="fill:#43cd81;fill-opacity:1;fill-rule:nonzero;stroke:none"
             id="path56" />
        </g>
      </g>
    </g>
  </g>
</svg>
